<svg width="29" height="19" viewBox="0 0 29 19" fill="none" xmlns="http://www.w3.org/2000/svg">
<path fill-rule="evenodd" clip-rule="evenodd" d="M7.94307 4.99692C8.52823 4.4313 8.52823 3.5151 7.94307 2.94948L7.92342 2.93021C7.33826 2.3646 6.39022 2.3646 5.80507 2.93021L0.438868 8.11589C-0.146289 8.68151 -0.146289 9.5995 0.438868 10.1651L5.80507 15.3504C6.39022 15.9161 7.33826 15.9161 7.92342 15.3504L7.94307 15.3315C8.52823 14.7659 8.52823 13.8497 7.94307 13.2841L4.7164 10.1651C4.13124 9.5995 4.13124 8.68151 4.7164 8.11589L7.94307 4.99692ZM28.5611 8.11589L23.1949 2.93021C22.6113 2.3646 21.6617 2.3646 21.0766 2.93021L21.0569 2.94948C20.4718 3.5151 20.4718 4.4313 21.0569 4.99692L24.2851 8.11589C24.8703 8.68151 24.8703 9.5995 24.2851 10.1651L21.0569 13.2841C20.4718 13.8497 20.4718 14.7659 21.0569 15.3315L21.0766 15.3504C21.6617 15.9161 22.6113 15.9161 23.1949 15.3504L28.5611 10.1651C29.1463 9.5995 29.1463 8.68151 28.5611 8.11589ZM19.5511 2.05814L11.8243 17.8874C11.574 18.3851 11.1349 19 10.5683 19H10.5383C9.43659 19 8.71864 17.5674 9.20577 16.6014L16.8876 0.922025C17.1379 0.425848 18.0657 0.0367526 18.0657 0.0367526V0C19.5646 0 20.0368 1.09223 19.5511 2.05814Z" fill="white"/>
</svg>
